<svg width="432" height="200" viewBox="0 0 432 200" fill="none" xmlns="http://www.w3.org/2000/svg">
<rect width="432" height="200" rx="8" fill="#EBEDF9"/>
<g clip-path="url(#clip0_116_1244)">
<path d="M134.89 112.49V121H129.62C126.801 121.022 124.006 120.489 121.394 119.431C118.781 118.372 116.403 116.809 114.396 114.831C112.388 112.853 110.789 110.498 109.692 107.902C108.595 105.306 108.02 102.519 108 99.7V69H117V78.15H123.8V86.66H117V99.66C117.125 102.173 117.937 104.604 119.348 106.688C120.758 108.772 122.713 110.43 125 111.48C126.495 112.088 128.087 112.427 129.7 112.48L134.89 112.49Z" fill="#0E122F"/>
<path d="M178.3 121H170V116.46C166.19 119.391 161.5 120.945 156.694 120.869C151.887 120.793 147.249 119.091 143.533 116.041C139.818 112.991 137.246 108.772 136.235 104.073C135.225 99.3732 135.836 94.47 137.97 90.1624C140.103 85.8548 143.632 82.3968 147.982 80.3521C152.333 78.3074 157.247 77.7965 161.925 78.9027C166.603 80.009 170.768 82.6671 173.742 86.4438C176.716 90.2205 178.322 94.8932 178.3 99.7V121ZM156.76 86.74C155.075 86.7582 153.41 87.1095 151.861 87.7737C150.312 88.4379 148.91 89.4019 147.735 90.6102C146.56 91.8184 145.636 93.2471 145.016 94.814C144.395 96.3809 144.091 98.055 144.12 99.74C144.073 101.424 144.363 103.1 144.975 104.67C145.586 106.239 146.507 107.67 147.681 108.878C148.855 110.086 150.26 111.046 151.811 111.702C153.363 112.357 155.03 112.695 156.715 112.695C158.4 112.695 160.067 112.357 161.619 111.702C163.17 111.046 164.575 110.086 165.749 108.878C166.923 107.67 167.844 106.239 168.455 104.67C169.067 103.1 169.357 101.424 169.31 99.74C169.343 98.0614 169.044 96.3928 168.431 94.83C167.818 93.2672 166.902 91.8409 165.735 90.633C164.569 89.4251 163.176 88.4594 161.636 87.7913C160.096 87.1233 158.439 86.766 156.76 86.74Z" fill="#0E122F"/>
<path d="M206.25 121C201.743 121.064 197.338 119.66 193.7 117V130.31H184.7V99.7001C184.644 95.4192 185.863 91.2185 188.202 87.6324C190.541 84.0463 193.893 81.2368 197.833 79.5613C201.773 77.8858 206.122 77.4201 210.327 78.2233C214.532 79.0265 218.403 81.0624 221.448 84.072C224.493 87.0816 226.574 90.9288 227.426 95.1244C228.279 99.3199 227.864 103.674 226.234 107.633C224.605 111.592 221.835 114.977 218.276 117.357C214.717 119.738 210.531 121.006 206.25 121ZM206.25 86.8201C204.577 86.8303 202.923 87.1729 201.383 87.828C199.843 88.483 198.449 89.4374 197.282 90.6357C196.114 91.8341 195.196 93.2524 194.581 94.8085C193.966 96.3646 193.667 98.0273 193.7 99.7001C193.7 103.039 195.026 106.241 197.388 108.603C199.749 110.964 202.951 112.29 206.29 112.29C209.629 112.29 212.831 110.964 215.192 108.603C217.554 106.241 218.88 103.039 218.88 99.7001C218.917 98.0195 218.618 96.3484 218 94.7852C217.381 93.2221 216.456 91.7985 215.28 90.5982C214.103 89.398 212.697 88.4454 211.147 87.7965C209.596 87.1477 207.931 86.8157 206.25 86.8201Z" fill="#FD5E04"/>
<path d="M253.55 121C249.043 121.064 244.638 119.66 241 117V130.31H232V99.7C231.942 95.4164 233.161 91.2124 235.499 87.6231C237.838 84.0338 241.192 81.2215 245.134 79.544C249.076 77.8665 253.428 77.3997 257.636 78.203C261.844 79.0062 265.718 81.0433 268.765 84.0548C271.812 87.0664 273.894 90.9164 274.746 95.1148C275.599 99.3132 275.183 103.67 273.551 107.632C271.92 111.593 269.147 114.979 265.585 117.36C262.024 119.74 257.834 121.008 253.55 121ZM253.55 86.82C251.877 86.8303 250.223 87.1729 248.683 87.8279C247.143 88.483 245.749 89.4373 244.582 90.6357C243.414 91.834 242.496 93.2524 241.881 94.8085C241.266 96.3645 240.967 98.0272 241 99.7C240.953 101.384 241.243 103.06 241.855 104.63C242.466 106.199 243.387 107.63 244.561 108.838C245.735 110.046 247.14 111.006 248.691 111.662C250.243 112.317 251.91 112.655 253.595 112.655C255.28 112.655 256.947 112.317 258.499 111.662C260.05 111.006 261.455 110.046 262.629 108.838C263.803 107.63 264.724 106.199 265.335 104.63C265.947 103.06 266.237 101.384 266.19 99.7C266.226 98.019 265.925 96.3477 265.306 94.7845C264.687 93.2213 263.761 91.7977 262.583 90.5976C261.405 89.3975 259.999 88.4451 258.448 87.7963C256.897 87.1476 255.231 86.8157 253.55 86.82Z" fill="#0E122F"/>
<path d="M280 83.5V76H290V83.5H280ZM280 121V87.22H290V121H280Z" fill="#0E122F"/>
<path d="M323.7 112.49V121H318.43C315.611 121.022 312.816 120.489 310.204 119.431C307.591 118.372 305.213 116.809 303.206 114.831C301.198 112.853 299.599 110.498 298.502 107.902C297.405 105.306 296.83 102.519 296.81 99.7V69H305.81V78.15H312.61V86.66H305.81V99.66C305.846 103.027 307.194 106.247 309.568 108.636C311.941 111.025 315.153 112.393 318.52 112.45L323.7 112.49Z" fill="#0E122F"/>
</g>
<defs>
<clipPath id="clip0_116_1244">
<rect width="215.7" height="61.31" fill="white" transform="translate(108 69)"/>
</clipPath>
</defs>
</svg>
